<svg viewBox="0 0 29 29" xmlns="http://www.w3.org/2000/svg">
<path fill-rule="evenodd" clip-rule="evenodd" d="M28.9285 3.21428V25.7143C28.9251 26.5672 28.5843 27.384 27.9805 27.9863C27.3767 28.5886 26.559 28.9273 25.7062 28.9286H3.22232C1.3741 28.9286 0 27.5593 0 25.7143V3.21428C0 1.37089 1.3741 0 3.22232 0H25.7062C27.4773 0 28.9285 1.44642 28.9285 3.21428ZM22.1831 8.19848C21.9791 8.03273 21.666 7.99731 21.5244 8.00015C20.8855 8.01148 19.9037 8.3529 15.1834 10.3164C13.5287 11.0035 10.2251 12.4272 5.26955 14.5862C4.46489 14.9064 4.04272 15.2195 4.00447 15.5255C3.93968 16.0425 4.58605 16.2462 5.4675 16.5239C5.58829 16.5619 5.7135 16.6014 5.84189 16.6432C6.7103 16.9251 7.87764 17.2552 8.48397 17.2666C9.03505 17.2807 9.64847 17.0541 10.3285 16.5866C14.9581 13.4628 17.348 11.8818 17.4982 11.8478C17.6045 11.8237 17.7518 11.794 17.8509 11.8818C17.9501 11.9696 17.9402 12.1368 17.9303 12.1821C17.8656 12.4549 15.3316 14.8114 14.0135 16.0372C13.5994 16.4222 13.3053 16.6957 13.2454 16.758C13.1127 16.8956 12.9775 17.0258 12.8474 17.1511C12.0404 17.9282 11.4341 18.5121 12.8799 19.4638C13.5744 19.9219 14.1302 20.3005 14.6848 20.6784C15.2898 21.0905 15.8933 21.5016 16.6737 22.0138C16.8733 22.1445 17.0639 22.2803 17.2495 22.4126C17.9532 22.914 18.5852 23.3645 19.3654 23.2916C19.8201 23.2506 20.289 22.8241 20.527 21.5491C21.0909 18.5387 22.1987 12.0164 22.4537 9.32756C22.4764 9.0924 22.448 8.79065 22.4254 8.6589C22.4051 8.4805 22.3187 8.3162 22.1831 8.19848Z"/>
</svg>
