<svg viewBox="0 0 30 30" xmlns="http://www.w3.org/2000/svg">
<path d="M29.4637 26.2499V3.74993C29.4637 1.98207 28.0125 0.535645 26.2414 0.535645H3.75748C1.90926 0.535645 0.535156 1.90654 0.535156 3.74993V26.2499C0.535156 28.0949 1.90926 29.4642 3.75748 29.4642H26.2414C27.0942 29.4629 27.9119 29.1242 28.5157 28.5219C29.1195 27.9196 29.4603 27.1028 29.4637 26.2499ZM23.3309 17.5826C23.3309 17.5826 25.1502 19.3778 25.5985 20.2103C25.6114 20.228 25.6162 20.244 25.621 20.2505C25.8027 20.5558 25.8493 20.7969 25.7577 20.9737C25.6066 21.2678 25.0923 21.4156 24.9171 21.4285H21.7044C21.4794 21.4285 21.0134 21.3706 20.4477 20.9801C20.0137 20.678 19.5846 20.1781 19.1668 19.6912C18.5432 18.968 18.0032 18.3412 17.46 18.3412C17.3911 18.341 17.3226 18.3524 17.2575 18.3749C16.8444 18.5067 16.3205 19.0933 16.3205 20.6603C16.3205 21.1505 15.9348 21.4301 15.6616 21.4301H14.1894C13.688 21.4301 11.0764 21.2549 8.76373 18.8137C5.92551 15.8244 3.37658 9.82815 3.35408 9.77511C3.19337 9.38779 3.52605 9.17725 3.88766 9.17725H7.13409C7.56962 9.17725 7.70944 9.44082 7.80909 9.67707C7.92159 9.94547 8.34587 11.0287 9.04016 12.2469C10.17 14.2285 10.8659 15.0353 11.4203 15.0353C11.524 15.0347 11.6258 15.0076 11.716 14.9565C12.4409 14.5564 12.3059 11.9721 12.2737 11.4385C12.2737 11.3373 12.2721 10.283 11.9025 9.77672C11.6357 9.41029 11.1841 9.27047 10.9109 9.21743C11.0223 9.06392 11.1689 8.93936 11.3384 8.85422C11.835 8.60672 12.7302 8.57136 13.6205 8.57136H14.1155C15.0814 8.58422 15.3321 8.6469 15.6809 8.73529C16.3864 8.90404 16.4009 9.36207 16.3382 10.921C16.3205 11.3646 16.3012 11.8676 16.3012 12.4574C16.3012 12.5844 16.2964 12.7242 16.2964 12.8689C16.2739 13.666 16.2482 14.5676 16.8107 14.9373C16.8835 14.9828 16.9675 15.0073 17.0534 15.008C17.2494 15.008 17.8361 15.008 19.4255 12.2806C20.1246 11.0769 20.663 9.65618 20.7 9.55011C20.7561 9.43543 20.8374 9.33489 20.9378 9.256C21.0202 9.21324 21.1119 9.1917 21.2046 9.19332H25.0216C25.4394 9.19332 25.7223 9.256 25.7753 9.41511C25.8669 9.67064 25.7577 10.4501 24.0139 12.8062L23.2377 13.8348C21.6562 15.9048 21.6562 16.0108 23.3309 17.5826Z"/>
</svg>
