<?xml version="1.0" encoding="UTF-8"?>
<!DOCTYPE svg PUBLIC "-//W3C//DTD SVG 1.1//EN" "http://www.w3.org/Graphics/SVG/1.1/DTD/svg11.dtd">
<svg xmlns="http://www.w3.org/2000/svg" xmlns:xlink="http://www.w3.org/1999/xlink">
<symbol id="arrow-right" viewBox="0 0 17 16">
	<path stroke="#fff" stroke-width="2" d="M.57 7.5h14.465m0 0L8.606 1.073m6.429 6.429-6.429 7.232"/>
</symbol>
<symbol id="ok" viewBox="0 0 30 30">
	<path d="M4.222 0A4.213 4.213 0 0 0 0 4.222v21.556A4.213 4.213 0 0 0 4.222 30h21.556A4.213 4.213 0 0 0 30 25.779V4.222A4.213 4.213 0 0 0 25.779 0H4.222Zm11.45 3.066a6.18 6.18 0 0 1 6.173 6.173 6.178 6.178 0 0 1-6.173 6.172 6.18 6.18 0 0 1-6.174-6.172 6.18 6.18 0 0 1 6.174-6.173Zm-.065 3.617a2.561 2.561 0 0 0-2.491 2.556 2.559 2.559 0 0 0 2.556 2.555 2.557 2.557 0 0 0 2.555-2.555 2.559 2.559 0 0 0-2.555-2.556h-.065ZM10.56 15.62c.327 0 .657.09.954.278a7.84 7.84 0 0 0 8.312 0 1.808 1.808 0 1 1 1.926 3.063 11.562 11.562 0 0 1-3.584 1.484l3.452 3.452a1.808 1.808 0 1 1-2.557 2.557l-3.394-3.391-3.39 3.391a1.806 1.806 0 0 1-2.557 0 1.808 1.808 0 0 1 0-2.557l3.45-3.452a11.59 11.59 0 0 1-3.585-1.484 1.808 1.808 0 0 1-.565-2.494 1.806 1.806 0 0 1 1.538-.847Z"/>
</symbol>
<symbol id="slider-arrow-left" viewBox="0 0 10 10">
	<path stroke="#483947" d="M10 5.5H1m0 0 4 4m-4-4L5 1"/>
</symbol>
<symbol id="slider-arrow-right" viewBox="0 0 10 10">
	<path stroke="#483947" d="M0 5h9m0 0L5 1m4 4L5 9.5"/>
</symbol>
<symbol id="telegram" viewBox="0 0 29 29">
	<path fill-rule="evenodd" d="M28.928 3.214v22.5a3.227 3.227 0 0 1-3.222 3.215H3.222C1.374 28.929 0 27.559 0 25.714v-22.5C0 1.371 1.374 0 3.222 0h22.484a3.229 3.229 0 0 1 3.223 3.214Zm-6.745 4.984c-.204-.165-.517-.2-.659-.198-.639.011-1.62.353-6.34 2.316-1.655.688-4.959 2.111-9.914 4.27-.805.32-1.227.633-1.266.94-.064.517.582.72 1.464.998.12.038.245.077.374.12.868.281 2.036.611 2.642.623.551.014 1.164-.213 1.845-.68 4.63-3.124 7.019-4.705 7.17-4.74.106-.023.253-.053.352.035.1.088.09.255.08.3-.065.273-2.6 2.63-3.918 3.855a46.26 46.26 0 0 0-.768.721c-.132.138-.268.268-.398.393-.807.777-1.413 1.361.033 2.313.694.458 1.25.837 1.805 1.214.605.412 1.208.824 1.989 1.336.2.13.39.266.576.399.703.501 1.335.951 2.115.879.455-.041.924-.468 1.162-1.743.564-3.01 1.672-9.533 1.927-12.221a2.979 2.979 0 0 0-.029-.67.717.717 0 0 0-.242-.46Z" clip-rule="evenodd"/>
</symbol>
<symbol id="vk" viewBox="0 0 30 30">
	<path d="M29.464 26.25V3.75A3.229 3.229 0 0 0 26.24.536H3.757C1.91.536.535 1.906.535 3.75v22.5c0 1.845 1.374 3.214 3.222 3.214h22.484a3.227 3.227 0 0 0 3.223-3.214Zm-6.133-8.667s1.82 1.795 2.268 2.627c.012.018.017.034.022.04.182.306.228.547.137.724-.151.294-.666.442-.84.454h-3.214c-.225 0-.69-.057-1.256-.448-.434-.302-.863-.802-1.281-1.289-.624-.723-1.164-1.35-1.707-1.35a.615.615 0 0 0-.203.034c-.413.132-.937.718-.937 2.285 0 .49-.385.77-.658.77h-1.473c-.501 0-3.113-.175-5.425-2.616-2.838-2.99-5.387-8.986-5.41-9.039-.16-.387.172-.598.534-.598h3.246c.436 0 .575.264.675.5.113.268.537 1.352 1.231 2.57 1.13 1.982 1.826 2.788 2.38 2.788a.607.607 0 0 0 .296-.079c.725-.4.59-2.984.558-3.518 0-.1-.002-1.155-.371-1.661-.267-.367-.719-.507-.992-.56.111-.153.258-.278.427-.363.497-.247 1.392-.283 2.283-.283h.495c.965.013 1.216.076 1.565.164.705.169.72.627.657 2.186-.018.444-.037.947-.037 1.536 0 .127-.005.267-.005.412-.022.797-.048 1.699.515 2.068.073.046.157.07.242.071.196 0 .783 0 2.372-2.727.7-1.204 1.238-2.625 1.275-2.73a.848.848 0 0 1 .238-.295.558.558 0 0 1 .267-.063h3.817c.417 0 .7.063.753.222.092.256-.017 1.035-1.761 3.391l-.776 1.029c-1.582 2.07-1.582 2.176.093 3.748Z"/>
</symbol>
</svg>